<svg xmlns="http://www.w3.org/2000/svg" xmlns:xlink="http://www.w3.org/1999/xlink" width="1920" zoomAndPan="magnify" viewBox="0 0 1440 599.999999" height="800" preserveAspectRatio="xMidYMid meet" version="1.0"><defs><g/><clipPath id="2f2bd84cba"><path d="M 0 60 L 516.75 60 L 516.75 482.25 L 0 482.25 Z M 0 60 " clip-rule="nonzero"/></clipPath><clipPath id="5e8fe625a2"><path d="M 86.296875 122 L 429.796875 122 L 429.796875 420.359375 L 86.296875 420.359375 Z M 86.296875 122 " clip-rule="nonzero"/></clipPath></defs><g clip-path="url(#2f2bd84cba)"><path fill="#003362" d="M 93.886719 298.9375 L 93.886719 392.824219 L 258.1875 482.484375 L 422.488281 392.824219 L 422.488281 298.9375 L 258.1875 388.597656 Z M 258.1875 60 L 0.00390625 200.828125 L 258.1875 341.65625 L 469.429688 226.410156 L 469.429688 388.597656 L 516.371094 388.597656 L 516.371094 200.828125 Z M 258.1875 60 " fill-opacity="1" fill-rule="nonzero"/></g><g clip-path="url(#5e8fe625a2)"><path fill="#003362" d="M 86.296875 271.1875 L 172.214844 420.085938 L 344.160156 420.085938 L 430.078125 271.1875 L 344.160156 122.402344 L 172.214844 122.402344 Z M 374.171875 271.1875 L 316.207031 371.707031 L 200.167969 371.707031 L 142.207031 271.1875 L 200.167969 170.664062 L 234.054688 170.664062 L 234.054688 218.816406 L 228.007812 218.816406 L 197.773438 271.1875 L 228.007812 323.558594 L 288.480469 323.558594 L 318.71875 271.1875 L 288.480469 218.816406 L 282.433594 218.816406 L 282.433594 170.664062 L 316.320312 170.664062 Z M 374.171875 271.1875 " fill-opacity="1" fill-rule="nonzero"/></g><g fill="#004aad" fill-opacity="1"><g transform="translate(547.534897, 353.381482)"><g><path d="M 113.265625 0 L 62.828125 0 C 45.609375 0 32.828125 -3.441406 24.484375 -10.328125 C 16.148438 -17.222656 11.984375 -27.835938 11.984375 -42.171875 L 11.984375 -106.4375 C 11.984375 -120.769531 16.148438 -131.414062 24.484375 -138.375 C 32.828125 -145.332031 45.609375 -148.8125 62.828125 -148.8125 L 113.265625 -148.8125 C 115.878906 -148.8125 117.769531 -148.222656 118.9375 -147.046875 C 120.113281 -145.878906 120.703125 -143.988281 120.703125 -141.375 L 120.703125 -116.359375 C 120.703125 -113.742188 120.113281 -111.847656 118.9375 -110.671875 C 117.769531 -109.503906 115.878906 -108.921875 113.265625 -108.921875 L 71.71875 -108.921875 C 67.445312 -108.921875 64.273438 -108.054688 62.203125 -106.328125 C 60.140625 -104.609375 59.109375 -102.03125 59.109375 -98.59375 L 59.109375 -49.390625 C 59.109375 -45.953125 60.140625 -43.441406 62.203125 -41.859375 C 64.273438 -40.273438 67.445312 -39.484375 71.71875 -39.484375 L 113.265625 -39.484375 C 115.878906 -39.484375 117.769531 -38.894531 118.9375 -37.71875 C 120.113281 -36.550781 120.703125 -34.65625 120.703125 -32.03125 L 120.703125 -7.4375 C 120.703125 -4.820312 120.113281 -2.925781 118.9375 -1.75 C 117.769531 -0.582031 115.878906 0 113.265625 0 Z M 113.265625 0 "/></g></g></g><g fill="#003362" fill-opacity="1"><g transform="translate(678.407656, 353.381482)"><g><path d="M 52.5 0 L 21.703125 0 C 19.085938 0 17.191406 -0.582031 16.015625 -1.75 C 14.847656 -2.925781 14.265625 -4.820312 14.265625 -7.4375 L 14.265625 -141.375 C 14.265625 -143.988281 14.847656 -145.878906 16.015625 -147.046875 C 17.191406 -148.222656 19.085938 -148.8125 21.703125 -148.8125 L 54.984375 -148.8125 C 57.179688 -148.8125 59.003906 -148.328125 60.453125 -147.359375 C 61.898438 -146.398438 63.242188 -144.816406 64.484375 -142.609375 L 83.09375 -108.921875 C 83.78125 -107.679688 84.363281 -106.785156 84.84375 -106.234375 C 85.320312 -105.679688 85.976562 -105.40625 86.8125 -105.40625 L 88.671875 -105.40625 C 89.492188 -105.40625 90.144531 -105.679688 90.625 -106.234375 C 91.113281 -106.785156 91.703125 -107.679688 92.390625 -108.921875 L 110.78125 -142.609375 C 112.019531 -144.816406 113.363281 -146.398438 114.8125 -147.359375 C 116.257812 -148.328125 118.085938 -148.8125 120.296875 -148.8125 L 153.78125 -148.8125 C 156.394531 -148.8125 158.285156 -148.222656 159.453125 -147.046875 C 160.628906 -145.878906 161.21875 -143.988281 161.21875 -141.375 L 161.21875 -7.4375 C 161.21875 -4.820312 160.628906 -2.925781 159.453125 -1.75 C 158.285156 -0.582031 156.394531 0 153.78125 0 L 121.953125 0 C 119.328125 0 117.425781 -0.582031 116.25 -1.75 C 115.082031 -2.925781 114.5 -4.820312 114.5 -7.4375 L 114.5 -80.1875 L 102.3125 -57.671875 C 101.070312 -55.328125 99.585938 -53.632812 97.859375 -52.59375 C 96.140625 -51.5625 93.972656 -51.046875 91.359375 -51.046875 L 83.09375 -51.046875 C 80.46875 -51.046875 78.296875 -51.5625 76.578125 -52.59375 C 74.859375 -53.632812 73.378906 -55.328125 72.140625 -57.671875 L 59.9375 -80.1875 L 59.9375 -7.4375 C 59.9375 -4.820312 59.347656 -2.925781 58.171875 -1.75 C 57.003906 -0.582031 55.113281 0 52.5 0 Z M 52.5 0 "/></g></g></g><g fill="#003362" fill-opacity="1"><g transform="translate(854.897318, 353.381482)"><g><path d="M 68.203125 -105.40625 L 58.5 -74 L 90.9375 -74 L 81.234375 -105.40625 C 80.679688 -106.644531 80.09375 -107.539062 79.46875 -108.09375 C 78.851562 -108.644531 78.128906 -108.921875 77.296875 -108.921875 L 72.140625 -108.921875 C 71.304688 -108.921875 70.578125 -108.644531 69.953125 -108.09375 C 69.335938 -107.539062 68.753906 -106.644531 68.203125 -105.40625 Z M 56.421875 -7.4375 C 56.421875 -4.820312 55.832031 -2.925781 54.65625 -1.75 C 53.488281 -0.582031 51.597656 0 48.984375 0 L 18.609375 0 C 15.984375 0 14.082031 -0.582031 12.90625 -1.75 C 11.738281 -2.925781 11.15625 -4.820312 11.15625 -7.4375 L 11.15625 -62 C 11.15625 -66.132812 11.8125 -70.890625 13.125 -76.265625 C 14.4375 -81.640625 16.46875 -87.910156 19.21875 -95.078125 L 37.203125 -142 C 38.023438 -144.34375 39.296875 -146.0625 41.015625 -147.15625 C 42.742188 -148.257812 44.988281 -148.8125 47.75 -148.8125 L 103.34375 -148.8125 C 105.957031 -148.8125 108.125 -148.257812 109.84375 -147.15625 C 111.570312 -146.0625 112.847656 -144.34375 113.671875 -142 L 131.65625 -95.078125 C 134.414062 -87.910156 136.445312 -81.640625 137.75 -76.265625 C 139.0625 -70.890625 139.71875 -66.132812 139.71875 -62 L 139.71875 -7.4375 C 139.71875 -4.820312 139.128906 -2.925781 137.953125 -1.75 C 136.785156 -0.582031 134.894531 0 132.28125 0 L 101.0625 0 C 98.3125 0 96.28125 -0.582031 94.96875 -1.75 C 93.664062 -2.925781 93.015625 -4.820312 93.015625 -7.4375 L 93.015625 -36.375 L 56.421875 -36.375 Z M 56.421875 -7.4375 "/></g></g></g><g fill="#003362" fill-opacity="1"><g transform="translate(1006.794211, 353.381482)"><g><path d="M 84.53125 0 L 51.046875 0 C 48.429688 0 46.535156 -0.582031 45.359375 -1.75 C 44.191406 -2.925781 43.609375 -4.820312 43.609375 -7.4375 L 43.609375 -108.921875 L 13.234375 -108.921875 C 10.609375 -108.921875 8.707031 -109.503906 7.53125 -110.671875 C 6.363281 -111.847656 5.78125 -113.742188 5.78125 -116.359375 L 5.78125 -141.375 C 5.78125 -143.988281 6.363281 -145.878906 7.53125 -147.046875 C 8.707031 -148.222656 10.609375 -148.8125 13.234375 -148.8125 L 122.359375 -148.8125 C 124.972656 -148.8125 126.863281 -148.222656 128.03125 -147.046875 C 129.207031 -145.878906 129.796875 -143.988281 129.796875 -141.375 L 129.796875 -116.359375 C 129.796875 -113.742188 129.207031 -111.847656 128.03125 -110.671875 C 126.863281 -109.503906 124.972656 -108.921875 122.359375 -108.921875 L 91.96875 -108.921875 L 91.96875 -7.4375 C 91.96875 -4.820312 91.382812 -2.925781 90.21875 -1.75 C 89.050781 -0.582031 87.15625 0 84.53125 0 Z M 84.53125 0 "/></g></g></g><g fill="#003362" fill-opacity="1"><g transform="translate(1143.398104, 353.381482)"><g><path d="M 53.734375 0 L 21.703125 0 C 19.085938 0 17.191406 -0.582031 16.015625 -1.75 C 14.847656 -2.925781 14.265625 -4.820312 14.265625 -7.4375 L 14.265625 -141.375 C 14.265625 -143.988281 14.847656 -145.878906 16.015625 -147.046875 C 17.191406 -148.222656 19.085938 -148.8125 21.703125 -148.8125 L 53.734375 -148.8125 C 56.359375 -148.8125 58.253906 -148.222656 59.421875 -147.046875 C 60.585938 -145.878906 61.171875 -143.988281 61.171875 -141.375 L 61.171875 -96.515625 L 95.703125 -96.515625 L 95.703125 -141.375 C 95.703125 -143.988281 96.285156 -145.878906 97.453125 -147.046875 C 98.617188 -148.222656 100.515625 -148.8125 103.140625 -148.8125 L 135.171875 -148.8125 C 137.785156 -148.8125 139.675781 -148.222656 140.84375 -147.046875 C 142.019531 -145.878906 142.609375 -143.988281 142.609375 -141.375 L 142.609375 -7.4375 C 142.609375 -4.820312 142.019531 -2.925781 140.84375 -1.75 C 139.675781 -0.582031 137.785156 0 135.171875 0 L 103.140625 0 C 100.515625 0 98.617188 -0.582031 97.453125 -1.75 C 96.285156 -2.925781 95.703125 -4.820312 95.703125 -7.4375 L 95.703125 -53.328125 L 61.171875 -53.328125 L 61.171875 -7.4375 C 61.171875 -4.820312 60.585938 -2.925781 59.421875 -1.75 C 58.253906 -0.582031 56.359375 0 53.734375 0 Z M 53.734375 0 "/></g></g></g><g fill="#004aad" fill-opacity="1"><g transform="translate(563.509147, 425.250832)"><g><path d="M 39.5625 -21.546875 C 39.5625 -14.566406 37.664062 -9.226562 33.875 -5.53125 C 30.09375 -1.84375 24.644531 0 17.53125 0 L 5.8125 0 L 5.8125 -42.28125 L 18.765625 -42.28125 C 25.347656 -42.28125 30.457031 -40.457031 34.09375 -36.8125 C 37.738281 -33.175781 39.5625 -28.085938 39.5625 -21.546875 Z M 34.359375 -21.375 C 34.359375 -26.882812 32.972656 -31.035156 30.203125 -33.828125 C 27.441406 -36.628906 23.332031 -38.03125 17.875 -38.03125 L 10.734375 -38.03125 L 10.734375 -4.25 L 16.71875 -4.25 C 22.582031 -4.25 26.988281 -5.691406 29.9375 -8.578125 C 32.882812 -11.460938 34.359375 -15.726562 34.359375 -21.375 Z M 34.359375 -21.375 "/></g></g></g><g fill="#004aad" fill-opacity="1"><g transform="translate(615.102854, 425.250832)"><g><path d="M 24.578125 0 L 23.625 -4.515625 L 23.40625 -4.515625 C 21.820312 -2.523438 20.242188 -1.175781 18.671875 -0.46875 C 17.097656 0.226562 15.132812 0.578125 12.78125 0.578125 C 9.632812 0.578125 7.171875 -0.226562 5.390625 -1.84375 C 3.609375 -3.46875 2.71875 -5.773438 2.71875 -8.765625 C 2.71875 -15.160156 7.835938 -18.515625 18.078125 -18.828125 L 23.453125 -19 L 23.453125 -20.96875 C 23.453125 -23.457031 22.914062 -25.289062 21.84375 -26.46875 C 20.78125 -27.65625 19.070312 -28.25 16.71875 -28.25 C 14.070312 -28.25 11.082031 -27.441406 7.75 -25.828125 L 6.28125 -29.5 C 7.84375 -30.351562 9.550781 -31.019531 11.40625 -31.5 C 13.269531 -31.976562 15.132812 -32.21875 17 -32.21875 C 20.78125 -32.21875 23.582031 -31.378906 25.40625 -29.703125 C 27.226562 -28.023438 28.140625 -25.335938 28.140625 -21.640625 L 28.140625 0 Z M 13.734375 -3.390625 C 16.722656 -3.390625 19.070312 -4.207031 20.78125 -5.84375 C 22.488281 -7.476562 23.34375 -9.769531 23.34375 -12.71875 L 23.34375 -15.59375 L 18.546875 -15.390625 C 14.722656 -15.253906 11.96875 -14.660156 10.28125 -13.609375 C 8.59375 -12.554688 7.75 -10.921875 7.75 -8.703125 C 7.75 -6.972656 8.273438 -5.65625 9.328125 -4.75 C 10.378906 -3.84375 11.847656 -3.390625 13.734375 -3.390625 Z M 12.609375 7 C 12.609375 5.894531 12.890625 5.082031 13.453125 4.5625 C 14.023438 4.039062 14.71875 3.78125 15.53125 3.78125 C 16.300781 3.78125 16.960938 4.039062 17.515625 4.5625 C 18.078125 5.082031 18.359375 5.894531 18.359375 7 C 18.359375 8.0625 18.078125 8.859375 17.515625 9.390625 C 16.960938 9.921875 16.300781 10.1875 15.53125 10.1875 C 14.71875 10.1875 14.023438 9.921875 13.453125 9.390625 C 12.890625 8.859375 12.609375 8.0625 12.609375 7 Z M 12.609375 7 "/></g></g></g><g fill="#004aad" fill-opacity="1"><g transform="translate(656.458273, 425.250832)"><g><path d="M 0.0625 -31.703125 L 5.203125 -31.703125 L 12.140625 -13.625 C 13.671875 -9.5 14.617188 -6.519531 14.984375 -4.6875 L 15.21875 -4.6875 C 15.46875 -5.664062 15.988281 -7.34375 16.78125 -9.71875 C 17.582031 -12.101562 20.203125 -19.429688 24.640625 -31.703125 L 29.796875 -31.703125 L 16.171875 4.390625 C 14.816406 7.960938 13.238281 10.492188 11.4375 11.984375 C 9.632812 13.484375 7.421875 14.234375 4.796875 14.234375 C 3.335938 14.234375 1.894531 14.066406 0.46875 13.734375 L 0.46875 9.890625 C 1.519531 10.117188 2.703125 10.234375 4.015625 10.234375 C 7.316406 10.234375 9.671875 8.382812 11.078125 4.6875 L 12.84375 0.171875 Z M 0.0625 -31.703125 "/></g></g></g><g fill="#004aad" fill-opacity="1"><g transform="translate(694.719039, 425.250832)"><g/></g></g><g fill="#004aad" fill-opacity="1"><g transform="translate(718.518952, 425.250832)"><g><path d="M 26.78125 0 L 26.78125 -20.5 C 26.78125 -23.082031 26.191406 -25.007812 25.015625 -26.28125 C 23.835938 -27.5625 22 -28.203125 19.5 -28.203125 C 16.15625 -28.203125 13.71875 -27.296875 12.1875 -25.484375 C 10.65625 -23.671875 9.890625 -20.703125 9.890625 -16.578125 L 9.890625 0 L 5.09375 0 L 5.09375 -45 L 9.890625 -45 L 9.890625 -31.375 C 9.890625 -29.738281 9.8125 -28.378906 9.65625 -27.296875 L 9.953125 -27.296875 C 10.890625 -28.828125 12.234375 -30.03125 13.984375 -30.90625 C 15.734375 -31.78125 17.722656 -32.21875 19.953125 -32.21875 C 23.828125 -32.21875 26.734375 -31.296875 28.671875 -29.453125 C 30.609375 -27.617188 31.578125 -24.695312 31.578125 -20.6875 L 31.578125 0 Z M 26.78125 0 "/></g></g></g><g fill="#004aad" fill-opacity="1"><g transform="translate(763.287137, 425.250832)"><g><path d="M 32.453125 -15.875 C 32.453125 -10.707031 31.148438 -6.671875 28.546875 -3.765625 C 25.941406 -0.867188 22.347656 0.578125 17.765625 0.578125 C 14.921875 0.578125 12.398438 -0.0820312 10.203125 -1.40625 C 8.003906 -2.738281 6.304688 -4.648438 5.109375 -7.140625 C 3.921875 -9.628906 3.328125 -12.539062 3.328125 -15.875 C 3.328125 -21.039062 4.617188 -25.066406 7.203125 -27.953125 C 9.785156 -30.835938 13.375 -32.28125 17.96875 -32.28125 C 22.394531 -32.28125 25.914062 -30.800781 28.53125 -27.84375 C 31.144531 -24.894531 32.453125 -20.90625 32.453125 -15.875 Z M 8.296875 -15.875 C 8.296875 -11.832031 9.101562 -8.75 10.71875 -6.625 C 12.34375 -4.5 14.726562 -3.4375 17.875 -3.4375 C 21.019531 -3.4375 23.40625 -4.492188 25.03125 -6.609375 C 26.664062 -8.722656 27.484375 -11.8125 27.484375 -15.875 C 27.484375 -19.90625 26.664062 -22.96875 25.03125 -25.0625 C 23.40625 -27.15625 21 -28.203125 17.8125 -28.203125 C 14.675781 -28.203125 12.304688 -27.171875 10.703125 -25.109375 C 9.097656 -23.046875 8.296875 -19.96875 8.296875 -15.875 Z M 14.9375 7 C 14.9375 5.894531 15.21875 5.082031 15.78125 4.5625 C 16.351562 4.039062 17.046875 3.78125 17.859375 3.78125 C 18.628906 3.78125 19.289062 4.039062 19.84375 4.5625 C 20.40625 5.082031 20.6875 5.894531 20.6875 7 C 20.6875 8.0625 20.40625 8.859375 19.84375 9.390625 C 19.289062 9.921875 18.628906 10.1875 17.859375 10.1875 C 17.046875 10.1875 16.351562 9.921875 15.78125 9.390625 C 15.21875 8.859375 14.9375 8.0625 14.9375 7 Z M 14.9375 7 "/></g></g></g><g fill="#004aad" fill-opacity="1"><g transform="translate(807.476875, 425.250832)"><g><path d="M 17.765625 0.578125 C 13.171875 0.578125 9.613281 -0.832031 7.09375 -3.65625 C 4.582031 -6.476562 3.328125 -10.472656 3.328125 -15.640625 C 3.328125 -20.941406 4.601562 -25.039062 7.15625 -27.9375 C 9.707031 -30.832031 13.347656 -32.28125 18.078125 -32.28125 C 19.597656 -32.28125 21.117188 -32.113281 22.640625 -31.78125 C 24.171875 -31.457031 25.367188 -31.070312 26.234375 -30.625 L 24.765625 -26.546875 C 23.703125 -26.972656 22.539062 -27.328125 21.28125 -27.609375 C 20.03125 -27.890625 18.925781 -28.03125 17.96875 -28.03125 C 11.519531 -28.03125 8.296875 -23.921875 8.296875 -15.703125 C 8.296875 -11.804688 9.082031 -8.816406 10.65625 -6.734375 C 12.226562 -4.648438 14.554688 -3.609375 17.640625 -3.609375 C 20.285156 -3.609375 22.992188 -4.179688 25.765625 -5.328125 L 25.765625 -1.0625 C 23.648438 0.03125 20.984375 0.578125 17.765625 0.578125 Z M 17.765625 0.578125 "/></g></g></g><g fill="#004aad" fill-opacity="1"><g transform="translate(844.089135, 425.250832)"><g/></g></g><g fill="#004aad" fill-opacity="1"><g transform="translate(867.889049, 425.250832)"><g><path d="M 19.84375 -32.21875 C 24.007812 -32.21875 27.242188 -30.796875 29.546875 -27.953125 C 31.847656 -25.109375 33 -21.082031 33 -15.875 C 33 -10.664062 31.835938 -6.617188 29.515625 -3.734375 C 27.191406 -0.859375 23.96875 0.578125 19.84375 0.578125 C 17.78125 0.578125 15.894531 0.195312 14.1875 -0.5625 C 12.476562 -1.320312 11.046875 -2.492188 9.890625 -4.078125 L 9.546875 -4.078125 L 8.53125 0 L 5.09375 0 L 5.09375 -45 L 9.890625 -45 L 9.890625 -34.078125 C 9.890625 -31.617188 9.8125 -29.421875 9.65625 -27.484375 L 9.890625 -27.484375 C 12.128906 -30.640625 15.445312 -32.21875 19.84375 -32.21875 Z M 19.140625 -28.203125 C 15.867188 -28.203125 13.507812 -27.257812 12.0625 -25.375 C 10.613281 -23.5 9.890625 -20.332031 9.890625 -15.875 C 9.890625 -11.425781 10.628906 -8.238281 12.109375 -6.3125 C 13.597656 -4.394531 15.984375 -3.4375 19.265625 -3.4375 C 22.210938 -3.4375 24.410156 -4.507812 25.859375 -6.65625 C 27.304688 -8.8125 28.03125 -11.90625 28.03125 -15.9375 C 28.03125 -20.0625 27.304688 -23.132812 25.859375 -25.15625 C 24.410156 -27.1875 22.171875 -28.203125 19.140625 -28.203125 Z M 19.140625 -28.203125 "/></g></g></g><g fill="#004aad" fill-opacity="1"><g transform="translate(912.59939, 425.250832)"><g><path d="M 24.578125 0 L 23.625 -4.515625 L 23.40625 -4.515625 C 21.820312 -2.523438 20.242188 -1.175781 18.671875 -0.46875 C 17.097656 0.226562 15.132812 0.578125 12.78125 0.578125 C 9.632812 0.578125 7.171875 -0.226562 5.390625 -1.84375 C 3.609375 -3.46875 2.71875 -5.773438 2.71875 -8.765625 C 2.71875 -15.160156 7.835938 -18.515625 18.078125 -18.828125 L 23.453125 -19 L 23.453125 -20.96875 C 23.453125 -23.457031 22.914062 -25.289062 21.84375 -26.46875 C 20.78125 -27.65625 19.070312 -28.25 16.71875 -28.25 C 14.070312 -28.25 11.082031 -27.441406 7.75 -25.828125 L 6.28125 -29.5 C 7.84375 -30.351562 9.550781 -31.019531 11.40625 -31.5 C 13.269531 -31.976562 15.132812 -32.21875 17 -32.21875 C 20.78125 -32.21875 23.582031 -31.378906 25.40625 -29.703125 C 27.226562 -28.023438 28.140625 -25.335938 28.140625 -21.640625 L 28.140625 0 Z M 13.734375 -3.390625 C 16.722656 -3.390625 19.070312 -4.207031 20.78125 -5.84375 C 22.488281 -7.476562 23.34375 -9.769531 23.34375 -12.71875 L 23.34375 -15.59375 L 18.546875 -15.390625 C 14.722656 -15.253906 11.96875 -14.660156 10.28125 -13.609375 C 8.59375 -12.554688 7.75 -10.921875 7.75 -8.703125 C 7.75 -6.972656 8.273438 -5.65625 9.328125 -4.75 C 10.378906 -3.84375 11.847656 -3.390625 13.734375 -3.390625 Z M 17.84375 -43.40625 L 15.125 -43.40625 C 12.832031 -45.207031 10.859375 -47.207031 9.203125 -49.40625 L 9.203125 -50.015625 L 14.171875 -50.015625 C 15.171875 -47.929688 16.394531 -45.953125 17.84375 -44.078125 Z M 16.3125 -35.890625 C 10.988281 -35.890625 8.179688 -38.394531 7.890625 -43.40625 L 10.84375 -43.40625 C 11.019531 -42.019531 11.472656 -41.050781 12.203125 -40.5 C 12.941406 -39.957031 14.332031 -39.6875 16.375 -39.6875 C 18.257812 -39.6875 19.613281 -40 20.4375 -40.625 C 21.269531 -41.25 21.765625 -42.175781 21.921875 -43.40625 L 24.96875 -43.40625 C 24.75 -41.09375 23.921875 -39.257812 22.484375 -37.90625 C 21.046875 -36.5625 18.988281 -35.890625 16.3125 -35.890625 Z M 16.3125 -35.890625 "/></g></g></g><g fill="#004aad" fill-opacity="1"><g transform="translate(953.954812, 425.250832)"><g><path d="M 26.78125 0 L 26.78125 -20.5 C 26.78125 -23.082031 26.191406 -25.007812 25.015625 -26.28125 C 23.835938 -27.5625 22 -28.203125 19.5 -28.203125 C 16.175781 -28.203125 13.742188 -27.300781 12.203125 -25.5 C 10.660156 -23.707031 9.890625 -20.75 9.890625 -16.625 L 9.890625 0 L 5.09375 0 L 5.09375 -31.703125 L 9 -31.703125 L 9.78125 -27.359375 L 10 -27.359375 C 10.988281 -28.921875 12.367188 -30.128906 14.140625 -30.984375 C 15.910156 -31.847656 17.890625 -32.28125 20.078125 -32.28125 C 23.890625 -32.28125 26.757812 -31.359375 28.6875 -29.515625 C 30.613281 -27.671875 31.578125 -24.726562 31.578125 -20.6875 L 31.578125 0 Z M 26.78125 0 "/></g></g></g><g fill="#004aad" fill-opacity="1"><g transform="translate(998.722997, 425.250832)"><g><path d="M 31.03125 -31.703125 L 31.03125 -28.65625 L 25.15625 -27.96875 C 25.695312 -27.289062 26.179688 -26.40625 26.609375 -25.3125 C 27.035156 -24.226562 27.25 -23.003906 27.25 -21.640625 C 27.25 -18.535156 26.1875 -16.054688 24.0625 -14.203125 C 21.9375 -12.347656 19.023438 -11.421875 15.328125 -11.421875 C 14.378906 -11.421875 13.492188 -11.5 12.671875 -11.65625 C 10.628906 -10.570312 9.609375 -9.210938 9.609375 -7.578125 C 9.609375 -6.710938 9.960938 -6.070312 10.671875 -5.65625 C 11.390625 -5.238281 12.613281 -5.03125 14.34375 -5.03125 L 19.953125 -5.03125 C 23.390625 -5.03125 26.023438 -4.304688 27.859375 -2.859375 C 29.703125 -1.410156 30.625 0.6875 30.625 3.4375 C 30.625 6.945312 29.21875 9.625 26.40625 11.46875 C 23.59375 13.3125 19.484375 14.234375 14.078125 14.234375 C 9.929688 14.234375 6.734375 13.460938 4.484375 11.921875 C 2.242188 10.378906 1.125 8.195312 1.125 5.375 C 1.125 3.445312 1.738281 1.78125 2.96875 0.375 C 4.207031 -1.03125 5.945312 -1.984375 8.1875 -2.484375 C 7.375 -2.847656 6.691406 -3.414062 6.140625 -4.1875 C 5.597656 -4.957031 5.328125 -5.859375 5.328125 -6.890625 C 5.328125 -8.046875 5.632812 -9.054688 6.25 -9.921875 C 6.863281 -10.785156 7.835938 -11.625 9.171875 -12.4375 C 7.523438 -13.113281 6.1875 -14.257812 5.15625 -15.875 C 4.125 -17.5 3.609375 -19.351562 3.609375 -21.4375 C 3.609375 -24.90625 4.648438 -27.578125 6.734375 -29.453125 C 8.816406 -31.335938 11.769531 -32.28125 15.59375 -32.28125 C 17.25 -32.28125 18.742188 -32.085938 20.078125 -31.703125 Z M 5.75 5.328125 C 5.75 7.035156 6.472656 8.332031 7.921875 9.21875 C 9.367188 10.113281 11.441406 10.5625 14.140625 10.5625 C 18.171875 10.5625 21.15625 9.957031 23.09375 8.75 C 25.03125 7.539062 26 5.90625 26 3.84375 C 26 2.125 25.46875 0.929688 24.40625 0.265625 C 23.34375 -0.390625 21.347656 -0.71875 18.421875 -0.71875 L 12.671875 -0.71875 C 10.492188 -0.71875 8.796875 -0.195312 7.578125 0.84375 C 6.359375 1.882812 5.75 3.378906 5.75 5.328125 Z M 8.359375 -21.546875 C 8.359375 -19.328125 8.984375 -17.648438 10.234375 -16.515625 C 11.492188 -15.378906 13.238281 -14.8125 15.46875 -14.8125 C 20.15625 -14.8125 22.5 -17.085938 22.5 -21.640625 C 22.5 -26.398438 20.128906 -28.78125 15.390625 -28.78125 C 13.128906 -28.78125 11.390625 -28.171875 10.171875 -26.953125 C 8.960938 -25.742188 8.359375 -23.941406 8.359375 -21.546875 Z M 8.359375 -21.546875 "/></g></g></g><g fill="#004aad" fill-opacity="1"><g transform="translate(1039.586698, 425.250832)"><g/></g></g><g fill="#004aad" fill-opacity="1"><g transform="translate(1063.386586, 425.250832)"><g><path d="M 17.765625 0.578125 C 13.171875 0.578125 9.613281 -0.832031 7.09375 -3.65625 C 4.582031 -6.476562 3.328125 -10.472656 3.328125 -15.640625 C 3.328125 -20.941406 4.601562 -25.039062 7.15625 -27.9375 C 9.707031 -30.832031 13.347656 -32.28125 18.078125 -32.28125 C 19.597656 -32.28125 21.117188 -32.113281 22.640625 -31.78125 C 24.171875 -31.457031 25.367188 -31.070312 26.234375 -30.625 L 24.765625 -26.546875 C 23.703125 -26.972656 22.539062 -27.328125 21.28125 -27.609375 C 20.03125 -27.890625 18.925781 -28.03125 17.96875 -28.03125 C 11.519531 -28.03125 8.296875 -23.921875 8.296875 -15.703125 C 8.296875 -11.804688 9.082031 -8.816406 10.65625 -6.734375 C 12.226562 -4.648438 14.554688 -3.609375 17.640625 -3.609375 C 20.285156 -3.609375 22.992188 -4.179688 25.765625 -5.328125 L 25.765625 -1.0625 C 23.648438 0.03125 20.984375 0.578125 17.765625 0.578125 Z M 17.765625 0.578125 "/></g></g></g><g fill="#004aad" fill-opacity="1"><g transform="translate(1099.99882, 425.250832)"><g><path d="M 24.578125 0 L 23.625 -4.515625 L 23.40625 -4.515625 C 21.820312 -2.523438 20.242188 -1.175781 18.671875 -0.46875 C 17.097656 0.226562 15.132812 0.578125 12.78125 0.578125 C 9.632812 0.578125 7.171875 -0.226562 5.390625 -1.84375 C 3.609375 -3.46875 2.71875 -5.773438 2.71875 -8.765625 C 2.71875 -15.160156 7.835938 -18.515625 18.078125 -18.828125 L 23.453125 -19 L 23.453125 -20.96875 C 23.453125 -23.457031 22.914062 -25.289062 21.84375 -26.46875 C 20.78125 -27.65625 19.070312 -28.25 16.71875 -28.25 C 14.070312 -28.25 11.082031 -27.441406 7.75 -25.828125 L 6.28125 -29.5 C 7.84375 -30.351562 9.550781 -31.019531 11.40625 -31.5 C 13.269531 -31.976562 15.132812 -32.21875 17 -32.21875 C 20.78125 -32.21875 23.582031 -31.378906 25.40625 -29.703125 C 27.226562 -28.023438 28.140625 -25.335938 28.140625 -21.640625 L 28.140625 0 Z M 13.734375 -3.390625 C 16.722656 -3.390625 19.070312 -4.207031 20.78125 -5.84375 C 22.488281 -7.476562 23.34375 -9.769531 23.34375 -12.71875 L 23.34375 -15.59375 L 18.546875 -15.390625 C 14.722656 -15.253906 11.96875 -14.660156 10.28125 -13.609375 C 8.59375 -12.554688 7.75 -10.921875 7.75 -8.703125 C 7.75 -6.972656 8.273438 -5.65625 9.328125 -4.75 C 10.378906 -3.84375 11.847656 -3.390625 13.734375 -3.390625 Z M 22.9375 -43.234375 C 22.9375 -40.535156 21.335938 -38.859375 18.140625 -38.203125 L 17.84375 -34.9375 L 14.8125 -34.9375 L 14.46875 -40.03125 C 16.125 -40.300781 17.328125 -40.675781 18.078125 -41.15625 C 18.828125 -41.632812 19.203125 -42.289062 19.203125 -43.125 C 19.203125 -43.957031 18.878906 -44.566406 18.234375 -44.953125 C 17.585938 -45.347656 16.5625 -45.546875 15.15625 -45.546875 C 13.957031 -45.546875 13.050781 -45.488281 12.4375 -45.375 L 12.4375 -48.265625 C 13.175781 -48.460938 14.207031 -48.5625 15.53125 -48.5625 C 20.46875 -48.5625 22.9375 -46.785156 22.9375 -43.234375 Z M 22.9375 -43.234375 "/></g></g></g><g fill="#004aad" fill-opacity="1"><g transform="translate(1141.354216, 425.250832)"><g/></g></g><g fill="#004aad" fill-opacity="1"><g transform="translate(1165.154103, 425.250832)"><g><path d="M 15.328125 -3.390625 C 16.179688 -3.390625 17 -3.453125 17.78125 -3.578125 C 18.570312 -3.703125 19.203125 -3.832031 19.671875 -3.96875 L 19.671875 -0.296875 C 19.148438 -0.0351562 18.378906 0.171875 17.359375 0.328125 C 16.347656 0.492188 15.441406 0.578125 14.640625 0.578125 C 8.503906 0.578125 5.4375 -2.648438 5.4375 -9.109375 L 5.4375 -27.96875 L 0.890625 -27.96875 L 0.890625 -30.28125 L 5.4375 -32.28125 L 7.46875 -39.046875 L 10.234375 -39.046875 L 10.234375 -31.703125 L 19.4375 -31.703125 L 19.4375 -27.96875 L 10.234375 -27.96875 L 10.234375 -9.3125 C 10.234375 -7.40625 10.6875 -5.941406 11.59375 -4.921875 C 12.5 -3.898438 13.742188 -3.390625 15.328125 -3.390625 Z M 15.328125 -3.390625 "/></g></g></g><g fill="#004aad" fill-opacity="1"><g transform="translate(1194.478065, 425.250832)"><g><path d="M 19.546875 -32.28125 C 20.953125 -32.28125 22.21875 -32.164062 23.34375 -31.9375 L 22.671875 -27.484375 C 21.359375 -27.765625 20.203125 -27.90625 19.203125 -27.90625 C 16.640625 -27.90625 14.445312 -26.863281 12.625 -24.78125 C 10.800781 -22.695312 9.890625 -20.101562 9.890625 -17 L 9.890625 0 L 5.09375 0 L 5.09375 -31.703125 L 9.046875 -31.703125 L 9.609375 -25.828125 L 9.828125 -25.828125 C 11.003906 -27.890625 12.421875 -29.476562 14.078125 -30.59375 C 15.742188 -31.71875 17.566406 -32.28125 19.546875 -32.28125 Z M 19.546875 -32.28125 "/></g></g></g><g fill="#004aad" fill-opacity="1"><g transform="translate(1227.070154, 425.250832)"><g><path d="M 24.578125 0 L 23.625 -4.515625 L 23.40625 -4.515625 C 21.820312 -2.523438 20.242188 -1.175781 18.671875 -0.46875 C 17.097656 0.226562 15.132812 0.578125 12.78125 0.578125 C 9.632812 0.578125 7.171875 -0.226562 5.390625 -1.84375 C 3.609375 -3.46875 2.71875 -5.773438 2.71875 -8.765625 C 2.71875 -15.160156 7.835938 -18.515625 18.078125 -18.828125 L 23.453125 -19 L 23.453125 -20.96875 C 23.453125 -23.457031 22.914062 -25.289062 21.84375 -26.46875 C 20.78125 -27.65625 19.070312 -28.25 16.71875 -28.25 C 14.070312 -28.25 11.082031 -27.441406 7.75 -25.828125 L 6.28125 -29.5 C 7.84375 -30.351562 9.550781 -31.019531 11.40625 -31.5 C 13.269531 -31.976562 15.132812 -32.21875 17 -32.21875 C 20.78125 -32.21875 23.582031 -31.378906 25.40625 -29.703125 C 27.226562 -28.023438 28.140625 -25.335938 28.140625 -21.640625 L 28.140625 0 Z M 13.734375 -3.390625 C 16.722656 -3.390625 19.070312 -4.207031 20.78125 -5.84375 C 22.488281 -7.476562 23.34375 -9.769531 23.34375 -12.71875 L 23.34375 -15.59375 L 18.546875 -15.390625 C 14.722656 -15.253906 11.96875 -14.660156 10.28125 -13.609375 C 8.59375 -12.554688 7.75 -10.921875 7.75 -8.703125 C 7.75 -6.972656 8.273438 -5.65625 9.328125 -4.75 C 10.378906 -3.84375 11.847656 -3.390625 13.734375 -3.390625 Z M 12.609375 -36.609375 C 13.535156 -37.804688 14.535156 -39.253906 15.609375 -40.953125 C 16.679688 -42.648438 17.523438 -44.125 18.140625 -45.375 L 23.984375 -45.375 L 23.984375 -44.765625 C 23.128906 -43.515625 21.863281 -41.972656 20.1875 -40.140625 C 18.507812 -38.304688 17.054688 -36.890625 15.828125 -35.890625 L 12.609375 -35.890625 Z M 12.609375 -36.609375 "/></g></g></g><g fill="#004aad" fill-opacity="1"><g transform="translate(1268.425551, 425.250832)"><g><path d="M 9.890625 0 L 5.09375 0 L 5.09375 -31.703125 L 9.890625 -31.703125 Z M 4.6875 -40.296875 C 4.6875 -41.390625 4.957031 -42.191406 5.5 -42.703125 C 6.039062 -43.210938 6.710938 -43.46875 7.515625 -43.46875 C 8.285156 -43.46875 8.953125 -43.207031 9.515625 -42.6875 C 10.078125 -42.164062 10.359375 -41.367188 10.359375 -40.296875 C 10.359375 -39.210938 10.078125 -38.40625 9.515625 -37.875 C 8.953125 -37.34375 8.285156 -37.078125 7.515625 -37.078125 C 6.710938 -37.078125 6.039062 -37.34375 5.5 -37.875 C 4.957031 -38.40625 4.6875 -39.210938 4.6875 -40.296875 Z M 4.6875 -40.296875 "/></g></g></g><g fill="#004aad" fill-opacity="1"><g transform="translate(1291.820534, 425.250832)"><g/></g></g><g fill="#004aad" fill-opacity="1"><g transform="translate(1315.620422, 425.250832)"><g><path d="M 15.328125 -3.390625 C 16.179688 -3.390625 17 -3.453125 17.78125 -3.578125 C 18.570312 -3.703125 19.203125 -3.832031 19.671875 -3.96875 L 19.671875 -0.296875 C 19.148438 -0.0351562 18.378906 0.171875 17.359375 0.328125 C 16.347656 0.492188 15.441406 0.578125 14.640625 0.578125 C 8.503906 0.578125 5.4375 -2.648438 5.4375 -9.109375 L 5.4375 -27.96875 L 0.890625 -27.96875 L 0.890625 -30.28125 L 5.4375 -32.28125 L 7.46875 -39.046875 L 10.234375 -39.046875 L 10.234375 -31.703125 L 19.4375 -31.703125 L 19.4375 -27.96875 L 10.234375 -27.96875 L 10.234375 -9.3125 C 10.234375 -7.40625 10.6875 -5.941406 11.59375 -4.921875 C 12.5 -3.898438 13.742188 -3.390625 15.328125 -3.390625 Z M 15.328125 -3.390625 "/></g></g></g><g fill="#004aad" fill-opacity="1"><g transform="translate(1344.944383, 425.250832)"><g><path d="M 9.890625 0 L 5.09375 0 L 5.09375 -31.703125 L 9.890625 -31.703125 Z M 4.6875 -40.296875 C 4.6875 -41.390625 4.957031 -42.191406 5.5 -42.703125 C 6.039062 -43.210938 6.710938 -43.46875 7.515625 -43.46875 C 8.285156 -43.46875 8.953125 -43.207031 9.515625 -42.6875 C 10.078125 -42.164062 10.359375 -41.367188 10.359375 -40.296875 C 10.359375 -39.210938 10.078125 -38.40625 9.515625 -37.875 C 8.953125 -37.34375 8.285156 -37.078125 7.515625 -37.078125 C 6.710938 -37.078125 6.039062 -37.34375 5.5 -37.875 C 4.957031 -38.40625 4.6875 -39.210938 4.6875 -40.296875 Z M 4.6875 -40.296875 "/></g></g></g><g fill="#004aad" fill-opacity="1"><g transform="translate(1368.339366, 425.250832)"><g><path d="M 45.5 0 L 45.5 -20.625 C 45.5 -23.144531 44.957031 -25.035156 43.875 -26.296875 C 42.789062 -27.566406 41.113281 -28.203125 38.84375 -28.203125 C 35.851562 -28.203125 33.644531 -27.34375 32.21875 -25.625 C 30.789062 -23.90625 30.078125 -21.265625 30.078125 -17.703125 L 30.078125 0 L 25.28125 0 L 25.28125 -20.625 C 25.28125 -23.144531 24.738281 -25.035156 23.65625 -26.296875 C 22.582031 -27.566406 20.894531 -28.203125 18.59375 -28.203125 C 15.582031 -28.203125 13.378906 -27.300781 11.984375 -25.5 C 10.585938 -23.695312 9.890625 -20.738281 9.890625 -16.625 L 9.890625 0 L 5.09375 0 L 5.09375 -31.703125 L 9 -31.703125 L 9.78125 -27.359375 L 10 -27.359375 C 10.90625 -28.898438 12.179688 -30.101562 13.828125 -30.96875 C 15.484375 -31.84375 17.332031 -32.28125 19.375 -32.28125 C 24.332031 -32.28125 27.570312 -30.484375 29.09375 -26.890625 L 29.328125 -26.890625 C 30.273438 -28.554688 31.644531 -29.867188 33.4375 -30.828125 C 35.226562 -31.796875 37.269531 -32.28125 39.5625 -32.28125 C 43.15625 -32.28125 45.84375 -31.359375 47.625 -29.515625 C 49.40625 -27.671875 50.296875 -24.726562 50.296875 -20.6875 L 50.296875 0 Z M 45.5 0 "/></g></g></g></svg>